<?xml version="1.0" encoding="iso-8859-1"?>
<!-- Generator: Adobe Illustrator 18.1.1, SVG Export Plug-In . SVG Version: 6.00 Build 0)  -->
<svg version="1.1" id="Capa_1" xmlns="http://www.w3.org/2000/svg" xmlns:xlink="http://www.w3.org/1999/xlink" x="0px" y="0px"
	 viewBox="0 0 19.461 19.461" style="enable-background:new 0 0 19.461 19.461;" xml:space="preserve">
<g>
	<path style="fill:#030104;" d="M19.461,14.274c0,0.168-0.061,0.33-0.18,0.445l-0.014,0.012c-0.119,0.117-0.279,0.186-0.447,0.186
		h-4.418c-0.166,0-0.328-0.067-0.445-0.186L9.73,10.504l-4.226,4.227c-0.117,0.117-0.279,0.186-0.447,0.186H0.642
		c-0.164,0-0.33-0.067-0.446-0.186L0.185,14.72C0.059,14.599,0,14.435,0,14.275c0-0.162,0.059-0.326,0.185-0.445l9.099-9.102
		c0.246-0.246,0.644-0.246,0.895,0l9.103,9.101C19.398,13.942,19.461,14.11,19.461,14.274z"/>
</g>
<g>
</g>
<g>
</g>
<g>
</g>
<g>
</g>
<g>
</g>
<g>
</g>
<g>
</g>
<g>
</g>
<g>
</g>
<g>
</g>
<g>
</g>
<g>
</g>
<g>
</g>
<g>
</g>
<g>
</g>
</svg>
