<?xml version="1.0" encoding="iso-8859-1"?>
<!-- Generator: Adobe Illustrator 19.0.0, SVG Export Plug-In . SVG Version: 6.00 Build 0)  -->
<svg version="1.1" id="Layer_1" xmlns="http://www.w3.org/2000/svg" xmlns:xlink="http://www.w3.org/1999/xlink" x="0px" y="0px"
	 viewBox="0 0 511.999 511.999" style="enable-background:new 0 0 511.999 511.999;" xml:space="preserve">
<g>
	<g>
		<path d="M482.726,99.402H29.274C13.132,99.402,0,112.535,0,128.677v254.645c0,16.143,13.132,29.274,29.274,29.274h453.451
			c16.142,0,29.274-13.132,29.274-29.274V128.677C512,112.535,498.868,99.402,482.726,99.402z M474.17,115.503L278.673,233.032
			c-13.986,8.379-31.362,8.379-45.335,0.006L37.802,115.503H474.17z M16.475,386.387c-0.236-0.985-0.375-2.007-0.375-3.063V128.677
			c0-2.331,0.615-4.52,1.682-6.422l177.343,106.6L16.475,386.387z M29.351,396.497L209.6,237.556l15.451,9.288
			c9.543,5.718,20.243,8.577,30.944,8.577c10.705,0,21.41-2.862,30.962-8.584l15.441-9.283l180.25,158.942H29.351z M495.899,383.323
			c0,1.056-0.138,2.079-0.375,3.063L316.872,228.854l177.337-106.612c1.072,1.905,1.691,4.098,1.691,6.435V383.323z"/>
	</g>
</g>
<g>
</g>
<g>
</g>
<g>
</g>
<g>
</g>
<g>
</g>
<g>
</g>
<g>
</g>
<g>
</g>
<g>
</g>
<g>
</g>
<g>
</g>
<g>
</g>
<g>
</g>
<g>
</g>
<g>
</g>
</svg>
